<mxfile host="app.diagrams.net" agent="Mozilla/5.0 (Windows NT 10.0; Win64; x64) AppleWebKit/537.36 (KHTML, like Gecko) Chrome/136.0.0.0 Safari/537.36" version="27.0.6">
  <diagram name="Internal Access Restrictions for Confidential Data" id="0">
    <mxGraphModel dx="1426" dy="743" grid="1" gridSize="10" guides="1" tooltips="1" connect="1" arrows="1" fold="1" page="1" pageScale="1" pageWidth="850" pageHeight="1100" math="0" shadow="0">
      <root>
        <mxCell id="0" />
        <mxCell id="1" parent="0" />
        <mxCell id="2" value="Internal User (Sender)" style="swimlane" parent="1" vertex="1">
          <mxGeometry width="280" height="1000" as="geometry" />
        </mxCell>
        <mxCell id="5" value="" style="ellipse;whiteSpace=wrap;html=1;aspect=fixed;fillColor=#000000;" parent="2" vertex="1">
          <mxGeometry x="120" y="20" width="30" height="30" as="geometry" />
        </mxCell>
        <mxCell id="6" value="Attempt to Data" style="rounded=1;whiteSpace=wrap;html=1;" parent="2" vertex="1">
          <mxGeometry x="35" y="70" width="200" height="60" as="geometry" />
        </mxCell>
        <mxCell id="e1" style="endArrow=none;" parent="2" source="5" target="6" edge="1">
          <mxGeometry relative="1" as="geometry" />
        </mxCell>
        <mxCell id="e2" style="endArrow=block;" parent="2" source="6" target="7" edge="1">
          <mxGeometry relative="1" as="geometry" />
        </mxCell>
        <mxCell id="3" value="Microsoft Purview DLP" style="swimlane" parent="1" vertex="1">
          <mxGeometry x="280" width="280" height="1000" as="geometry" />
        </mxCell>
        <mxCell id="7" value="Evaluate Sensitivity of Data Being Shared" style="rounded=1;whiteSpace=wrap;html=1;" parent="3" vertex="1">
          <mxGeometry x="40" y="70" width="200" height="60" as="geometry" />
        </mxCell>
        <mxCell id="8" value="Is Data Confidential or Highly Sensitive?" style="rhombus;whiteSpace=wrap;html=1;" parent="3" vertex="1">
          <mxGeometry x="65" y="190" width="150" height="130" as="geometry" />
        </mxCell>
        <mxCell id="9" value="Is Recipient in Approved Vendor/Internal List?" style="rhombus;whiteSpace=wrap;html=1;" parent="3" vertex="1">
          <mxGeometry x="50" y="370" width="180" height="160" as="geometry" />
        </mxCell>
        <mxCell id="11" value="Block Access + Notify Security Team" style="rounded=1;whiteSpace=wrap;html=1;" parent="3" vertex="1">
          <mxGeometry x="40" y="620" width="200" height="60" as="geometry" />
        </mxCell>
        <mxCell id="e3" value="Yes" style="endArrow=block;" parent="3" source="8" target="9" edge="1">
          <mxGeometry relative="1" as="geometry" />
        </mxCell>
        <mxCell id="e4" value="No" style="endArrow=block;" parent="3" source="8" target="10" edge="1">
          <mxGeometry relative="1" as="geometry" />
        </mxCell>
        <mxCell id="e5" value="Yes" style="endArrow=block;" parent="3" source="9" target="10" edge="1">
          <mxGeometry relative="1" as="geometry" />
        </mxCell>
        <mxCell id="e6" value="No" style="endArrow=block;" parent="3" source="9" target="11" edge="1">
          <mxGeometry relative="1" as="geometry" />
        </mxCell>
        <mxCell id="879Jc8_2LZ0mOPLU8Ogh-12" value="" style="endArrow=classic;html=1;rounded=0;exitX=0.5;exitY=1;exitDx=0;exitDy=0;entryX=0.5;entryY=0;entryDx=0;entryDy=0;" edge="1" parent="3" source="7" target="8">
          <mxGeometry width="50" height="50" relative="1" as="geometry">
            <mxPoint x="120" y="410" as="sourcePoint" />
            <mxPoint x="170" y="360" as="targetPoint" />
          </mxGeometry>
        </mxCell>
        <mxCell id="4" value="Recipient (Internal or External)" style="swimlane" parent="1" vertex="1">
          <mxGeometry x="560" width="280" height="1000" as="geometry" />
        </mxCell>
        <mxCell id="10" value="Allow Share or Access" style="rounded=1;whiteSpace=wrap;html=1;" parent="4" vertex="1">
          <mxGeometry x="40" y="420" width="200" height="60" as="geometry" />
        </mxCell>
        <mxCell id="12" value="" style="ellipse;whiteSpace=wrap;html=1;aspect=fixed;fillColor=#000000;" parent="4" vertex="1">
          <mxGeometry x="125" y="635" width="30" height="30" as="geometry" />
        </mxCell>
        <mxCell id="e7" style="endArrow=block;" parent="4" source="10" target="12" edge="1">
          <mxGeometry relative="1" as="geometry" />
        </mxCell>
        <mxCell id="e8" style="endArrow=block;" parent="1" source="11" target="12" edge="1">
          <mxGeometry relative="1" as="geometry" />
        </mxCell>
      </root>
    </mxGraphModel>
  </diagram>
</mxfile>
